:version 1.10
:name ASF
:units
  mass 1
  length 1
  angle deg
:documentation
  ASF file generated by Kaydara
:root
  axis xyz
  order  tx ty tz rx ry rz
  position 0 0 0
  orientation 0 0 0
:bonedata
  begin
    id 1
    name LeftUpLegDummy
    direction 1 -2.30186e-007 -8.31532e-007
    length 2.93387
    axis 0 0 0 xyz
  end
  begin
    id 2
    name LeftUpLeg
    direction -1.82929e-007 -1 -1.48925e-009
    length 17.3336
    axis -3.48766 0.00143442 -0.000521554 xyz
    dof rx ry rz
  end
  begin
    id 3
    name LeftLeg
    direction -1.82929e-007 -1 -5.23717e-011
    length 14.9995
    axis 3.68178 -0.00654042 -0.000282425 xyz
    dof rx ry rz
  end
  begin
    id 4
    name LeftFoot
    direction 8.31532e-007 -4.54534e-011 1
    length 6.74421
    axis 1.87234e-006 4.66016e-005 -5.96866e-006 xyz
    dof rx ry rz
  end
  begin
    id 5
    name LeftToes
    direction 0.00818058 -0.00485161 0.999955
    length 3.85048
    axis 1.06247e-005 4.65869e-005 -5.96999e-006 xyz
    dof rx ry rz
  end
  begin
    id 6
    name SpineDummy
    direction -5.8607e-008 0.943407 -0.331637
    length 5.93572
    axis 0 0 0 xyz
  end
  begin
    id 7
    name Spine
    direction -1.04988e-007 0.999988 0.00495137
    length 10.1015
    axis -0.001389 0.000121417 6.61666e-006 xyz
    dof rx ry rz
  end
  begin
    id 8
    name Spine1
    direction 0 0 0
    length 0
    axis -0.001389 0.00012144 6.56766e-006 xyz
    dof rx ry rz
  end
  begin
    id 9
    name RightShoulderDummy
    direction -0.98348 0.17941 -0.0240696
    length 3.59882
    axis -0.001389 0.00012144 6.56766e-006 xyz
  end
  begin
    id 10
    name RightShoulder
    direction -0.978693 0.204882 0.0135597
    length 2.70001
    axis 0.215806 0.000203631 -0.00679732 xyz
    dof rx ry rz
  end
  begin
    id 11
    name RightArm
    direction -1 3.85509e-006 8.31394e-007
    length 10.2459
    axis -23.2009 -0.134239 -0.964098 xyz
    dof rx ry rz
  end
  begin
    id 12
    name RightForeArm
    direction -1 3.85569e-006 8.3129e-007
    length 8.16799
    axis -9.92322 0.0658061 0.17887 xyz
    dof rx ry rz
  end
  begin
    id 13
    name RightHand
    direction -0.992843 -0.0414604 0.112003
    length 5.28593
    axis -0.00960638 0.00330669 -0.185225 xyz
    dof rx ry rz
  end
  begin
    id 14
    name LeftShoulder1Dummy
    direction 0.983523 0.179172 -0.0240748
    length 3.59866
    axis -0.001389 0.00012144 6.56766e-006 xyz
  end
  begin
    id 15
    name LeftShoulder1
    direction 0.978627 0.205195 0.0135605
    length 2.70019
    axis -0.001389 0.00012144 6.57583e-006 xyz
    dof rx ry rz
  end
  begin
    id 16
    name LeftArm
    direction 1 3.51895e-006 -8.60188e-007
    length 10.2459
    axis -23.1894 0.134785 0.967513 xyz
    dof rx ry rz
  end
  begin
    id 17
    name LeftForeArm
    direction 1 3.51921e-006 -7.32029e-007
    length 8.16799
    axis -9.91835 -0.0656957 -0.177789 xyz
    dof rx ry rz
  end
  begin
    id 18
    name LeftHand
    direction 0.992938 -0.0411636 0.11126
    length 5.32135
    axis -0.00960237 -0.00340661 0.185177 xyz
    dof rx ry rz
  end
  begin
    id 19
    name HEadDummy
    direction 1.01974e-006 0.999861 -0.016675
    length 2.99946
    axis -0.001389 0.00012144 6.56766e-006 xyz
  end
  begin
    id 20
    name HEad
    direction -0.0222689 0.980941 0.193023
    length 5.12695
    axis -0.001389 0.00012144 6.56766e-006 xyz
    dof rx ry rz
  end
  begin
    id 21
    name RightUpLegDummy
    direction -1 2.30186e-007 8.31532e-007
    length 2.93387
    axis 0 0 0 xyz
  end
  begin
    id 22
    name RightUpLeg
    direction -1.82966e-007 -1 1.56832e-007
    length 17.3336
    axis -3.4909 -0.000906625 0.00028951 xyz
    dof rx ry rz
  end
  begin
    id 23
    name RightLeg
    direction -1.82786e-007 -1 -1.80317e-007
    length 14.9995
    axis 3.68513 0.0193739 -0.131021 xyz
    dof rx ry rz
  end
  begin
    id 24
    name RightFoot
    direction 8.31721e-007 -4.63324e-011 1
    length 6.74421
    axis 4.81691e-005 -0.120479 -0.188785 xyz
    dof rx ry rz
  end
  begin
    id 25
    name RightToes
    direction 0.00124746 -0.014064 0.9999
    length 3.85082
    axis 0.000481921 0.542163 -0.142575 xyz
    dof rx ry rz
  end
:hierarchy
  begin
    root LeftUpLegDummy SpineDummy RightUpLegDummy
    LeftUpLegDummy LeftUpLeg
    LeftUpLeg LeftLeg
    LeftLeg LeftFoot
    LeftFoot LeftToes
    SpineDummy Spine
    Spine Spine1
    Spine1 RightShoulderDummy LeftShoulder1Dummy HEadDummy
    RightShoulderDummy RightShoulder
    RightShoulder RightArm
    RightArm RightForeArm
    RightForeArm RightHand
    LeftShoulder1Dummy LeftShoulder1
    LeftShoulder1 LeftArm
    LeftArm LeftForeArm
    LeftForeArm LeftHand
    HEadDummy HEad
    RightUpLegDummy RightUpLeg
    RightUpLeg RightLeg
    RightLeg RightFoot
    RightFoot RightToes
  end

:SAMPLES-PER-SECOND 30
:FULLY-SPECIFIED
:DEGREES
247
root  39.5565 34.3858 40.8836 -173.261 -6.1608 -178.177
LeftUpLeg  -5.11219 2.41324 4.58174
LeftLeg  33.3718 1.39414 0.79053
LeftFoot  -6.0073 -0.00960495 -0.183059
LeftToes  -35.1263 2.48695e-006 -1.03773e-007
Spine  3.22693 -1.17504 2.80382
Spine1  6.26631 -2.61039 5.46157
RightShoulder  0.0500758 4.36375 7.46375
RightArm  -36.4353 -14.3951 69.946
RightForeArm  23.902 19.5874 3.59304
RightHand  0.339942 -5.96289 -6.14314
LeftShoulder1  0.0192657 -0.466227 -9.04732
LeftArm  -15.5137 13.8831 -72.9901
LeftForeArm  27.8968 -14.7415 -2.65419
LeftHand  0.125223 4.00991 3.20041
HEad  8.95673 6.25019 2.80965
RightUpLeg  -18.1944 -16.1751 6.55229
RightLeg  13.3731 -3.0512 -0.519502
RightFoot  2.43036 0.0113409 -0.157046
RightToes  -11.7636 -0.0404541 -0.107533
248
root  39.7038 34.3783 40.4682 -173.63 -6.23602 -178.012
LeftUpLeg  -6.64275 3.095 5.24875
LeftLeg  38.1156 1.01339 0.689693
LeftFoot  -4.19468 -0.00414245 -0.113123
LeftToes  -39.6535 2.48695e-006 -1.03773e-007
Spine  3.41513 -1.18014 3.02789
Spine1  6.61402 -2.64328 5.89593
RightShoulder  0.0547709 4.51698 7.37871
RightArm  -35.6437 -13.378 69.2922
RightForeArm  23.7073 20.2496 3.7253
RightHand  0.332527 -5.88618 -6.08428
LeftShoulder1  0.0206473 -0.747667 -8.97473
LeftArm  -16.2316 11.089 -73.0256
LeftForeArm  26.7538 -15.6596 -2.82816
LeftHand  0.0968662 3.87121 2.49122
HEad  9.28963 6.27003 3.22066
RightUpLeg  -17.1011 -16.3162 6.75296
RightLeg  13.4173 -2.91282 -0.498247
RightFoot  1.32307 0.00601384 -0.0914375
RightToes  -10.5153 -0.035848 -0.0965437
249
root  39.8319 34.3579 40.1155 -174.079 -6.09363 -177.81
LeftUpLeg  -8.62855 4.50302 6.01273
LeftLeg  43.6186 0.462446 0.381135
LeftFoot  -1.92107 -0.000849055 -0.0506502
LeftToes  -42.3763 2.48695e-006 -1.03773e-007
Spine  3.60462 -1.10128 3.26144
Spine1  6.98344 -2.48858 6.32219
RightShoulder  0.0614646 4.51308 7.39231
RightArm  -35.1462 -12.129 68.5549
RightForeArm  23.5906 20.5128 3.77821
RightHand  0.343977 -5.88997 -6.30176
LeftShoulder1  0.0223201 -0.770165 -8.99292
LeftArm  -16.7973 7.79447 -72.8728
LeftForeArm  24.296 -17.1401 -3.11217
LeftHand  0.0646954 3.96896 1.49442
HEad  9.66232 6.41849 3.68035
RightUpLeg  -16.1499 -16.3526 6.95436
RightLeg  13.6867 -2.69819 -0.474627
RightFoot  0.314096 0.0017064 -0.0364388
RightToes  -9.73187 -0.0319022 -0.089589
250
root  39.9301 34.3352 39.8147 -174.469 -5.80724 -177.8
LeftUpLeg  -10.9015 6.1158 6.49049
LeftLeg  49.3727 0.0892724 0.084158
LeftFoot  -0.0711715 -2.00543e-005 -0.0322961
LeftToes  -39.4599 2.48695e-006 -1.03773e-007
Spine  3.75931 -0.990854 3.41112
Spine1  7.28614 -2.2555 6.58244
RightShoulder  0.068272 4.55275 7.38741
RightArm  -35.473 -11.0027 67.9594
RightForeArm  23.6295 20.522 3.78005
RightHand  0.358315 -5.92861 -6.53395
LeftShoulder1  0.0241521 -0.8819 -9.09831
LeftArm  -17.845 4.68152 -72.4326
LeftForeArm  21.2293 -20.126 -3.69893
LeftHand  0.0363594 4.16958 0.627784
HEad  9.38086 7.13888 3.68039
RightUpLeg  -15.451 -16.7914 6.99899
RightLeg  14.1847 -1.99087 -0.368051
RightFoot  -0.710179 -0.00151899 0.00628507
RightToes  -8.89215 -0.0299682 -0.0820865
251
root  40.009 34.3371 39.5369 -174.738 -5.50374 -177.974
LeftUpLeg  -13.2586 7.69755 6.65166
LeftLeg  54.6431 0.075364 0.0842258
LeftFoot  0.571113 0.000171563 -0.0344324
LeftToes  -28.651 2.48695e-006 -1.03773e-007
Spine  3.87298 -0.92348 3.48685
Spine1  7.489 -2.12863 6.72772
RightShoulder  0.0736164 4.66698 7.17563
RightArm  -35.9175 -10.134 67.6208
RightForeArm  23.2812 20.3915 3.75386
RightHand  0.380657 -6.01303 -6.86053
LeftShoulder1  0.026011 -1.01367 -9.07319
LeftArm  -19.0717 1.4675 -71.8697
LeftForeArm  17.593 -23.4147 -4.37215
LeftHand  -0.00689556 4.50133 -0.544554
HEad  8.16323 8.62495 3.36763
RightUpLeg  -14.7111 -16.7443 6.80716
RightLeg  14.3161 -1.77465 -0.332262
RightFoot  -1.4089 -0.00312406 0.0276813
RightToes  -8.04478 -0.0285038 -0.0744666
252
root  40.0533 34.3843 39.2695 -174.876 -4.93137 -178.568
LeftUpLeg  -15.2317 9.22113 6.14908
LeftLeg  57.473 1.15279 1.56447
LeftFoot  0.267528 7.35161e-005 -0.0314991
LeftToes  -22.785 2.48695e-006 -1.03773e-007
Spine  3.94398 -0.867764 3.42858
Spine1  7.59646 -2.02996 6.63403
RightShoulder  0.0781087 4.80606 6.82269
RightArm  -36.576 -9.36225 67.5199
RightForeArm  23.4754 19.9685 3.66906
RightHand  0.386453 -6.03069 -6.94885
LeftShoulder1  0.0277646 -0.862409 -9.29998
LeftArm  -19.4893 -1.73208 -70.7754
LeftForeArm  13.0376 -27.325 -5.21829
LeftHand  -0.0604715 5.112 -1.7222
HEad  6.52899 10.6694 3.00805
RightUpLeg  -13.8508 -15.6115 6.09467
RightLeg  13.9784 -2.37256 -0.429823
RightFoot  -1.63307 -0.00479975 0.0533089
RightToes  -7.66782 -0.0274877 -0.0710615
